<svg xmlns="http://www.w3.org/2000/svg" width="1600" height="1320" viewBox="0 0 1600 1320" role="img" aria-labelledby="title desc">
  <title id="title">東京六天五夜行程景點地圖</title>
  <desc id="desc">2026/4/28 到 5/3 東京行程總覽，包含成田、鶯谷、上野、新宿晚餐、Alpen TOKYO、酔月、歌舞伎町、皇居、原宿、澀谷、淺草、台場、東京塔、富士山一日遊與回程動線。</desc>
  <defs>
    <style>
      .bg { fill: #f7efd4; }
      .water { fill: #bfe5ef; opacity: .86; }
      .park { fill: #cfe8bd; opacity: .8; }
      .road { stroke: #d4c7a7; stroke-width: 5; opacity: .8; fill: none; }
      .road2 { stroke: #e5d9bc; stroke-width: 2.4; opacity: .9; fill: none; }
      .rail { fill: none; stroke-linecap: round; stroke-linejoin: round; }
      .railShadow { fill: none; stroke: rgba(255,255,255,.9); stroke-width: 18; stroke-linecap: round; stroke-linejoin: round; }
      .yamanote { stroke: #13a653; stroke-width: 10; stroke-dasharray: 24 12; }
      .skyliner { stroke: #c33434; stroke-width: 9; stroke-dasharray: 18 10; }
      .metro { stroke: #f09a26; stroke-width: 8; stroke-dasharray: 18 10; }
      .waterline { stroke: #289ec8; stroke-width: 9; stroke-dasharray: 22 11; }
      .fujiLine { stroke: #6a66d8; stroke-width: 9; stroke-dasharray: 18 10; }
      .node { stroke: #fff; stroke-width: 7; filter: url(#softShadow); }
      .label { font-family: "Microsoft JhengHei", "Noto Sans CJK TC", Arial, sans-serif; fill: #2f2a22; font-weight: 800; paint-order: stroke; stroke: #fff; stroke-width: 5; stroke-linejoin: round; }
      .small { font-family: "Microsoft JhengHei", "Noto Sans CJK TC", Arial, sans-serif; fill: #3a3329; font-size: 24px; font-weight: 700; }
      .tiny { font-family: "Microsoft JhengHei", "Noto Sans CJK TC", Arial, sans-serif; fill: #554d42; font-size: 19px; font-weight: 650; }
      .box { fill: #fffdf5; fill-opacity: .78; stroke-width: 4; rx: 14; filter: url(#softShadow); }
      .star { fill: #f72735; font-size: 25px; font-weight: 900; }
      .title { font-family: "Microsoft JhengHei", "Noto Sans CJK TC", Arial, sans-serif; fill: #14110e; font-size: 62px; font-weight: 950; letter-spacing: 0; }
      .subtitle { font-family: "Microsoft JhengHei", "Noto Sans CJK TC", Arial, sans-serif; fill: #5e5547; font-size: 25px; font-weight: 700; }
      .dayText { font-family: "Microsoft JhengHei", "Noto Sans CJK TC", Arial, sans-serif; fill: #221f1a; font-size: 23px; font-weight: 800; }
      .daySmall { font-family: "Microsoft JhengHei", "Noto Sans CJK TC", Arial, sans-serif; fill: #4b443a; font-size: 20px; font-weight: 650; }
      .whiteText { font-family: "Microsoft JhengHei", "Noto Sans CJK TC", Arial, sans-serif; fill: #fff; font-weight: 900; paint-order: stroke; stroke: rgba(0,0,0,.42); stroke-width: 5; stroke-linejoin: round; }
    </style>
    <filter id="softShadow" x="-20%" y="-20%" width="140%" height="140%">
      <feDropShadow dx="0" dy="6" stdDeviation="5" flood-color="#000" flood-opacity=".22"/>
    </filter>
    <pattern id="mapGrid" width="92" height="92" patternUnits="userSpaceOnUse">
      <path d="M 0 42 C 28 30, 58 56, 92 40" class="road2"/>
      <path d="M 46 0 C 34 34, 62 55, 46 92" class="road2"/>
      <path d="M 0 84 L 92 10" class="road2"/>
    </pattern>
    <linearGradient id="banner" x1="0" x2="1">
      <stop offset="0" stop-color="#fff4b8"/>
      <stop offset=".6" stop-color="#fffdf3"/>
      <stop offset="1" stop-color="#e7f7ff"/>
    </linearGradient>
  </defs>

  <rect class="bg" x="0" y="0" width="1600" height="1320"/>
  <rect x="0" y="0" width="1600" height="1100" fill="url(#mapGrid)" opacity=".72"/>
  <rect x="0" y="1096" width="1600" height="224" fill="#fff7df"/>

  <path class="water" d="M1145 70 C1215 170 1215 260 1175 355 C1140 438 1192 516 1280 604 C1390 713 1415 818 1340 970 C1303 1047 1360 1085 1600 1120 L1600 0 L1190 0 C1164 22 1151 45 1145 70Z"/>
  <path class="water" d="M1020 578 C1128 610 1222 660 1294 744 C1351 811 1375 888 1350 948 C1270 913 1166 864 1052 808 C1012 788 990 732 998 676 C1002 642 1008 612 1020 578Z"/>
  <path class="park" d="M735 364 C790 320 874 322 930 366 C946 423 918 482 852 501 C784 520 724 474 735 364Z"/>
  <path class="park" d="M500 575 C558 540 640 560 675 619 C655 674 600 701 536 682 C488 668 470 620 500 575Z"/>
  <path class="park" d="M300 200 C368 158 450 167 512 226 C509 293 458 341 382 331 C321 323 284 272 300 200Z"/>

  <path class="road" d="M80 870 C278 796 420 770 590 650 C731 550 860 515 1065 500 C1246 487 1390 450 1530 380"/>
  <path class="road" d="M180 120 C350 215 498 252 680 300 C870 351 1050 350 1230 265"/>
  <path class="road" d="M185 1020 C312 882 434 752 530 605 C650 420 830 244 1015 110"/>
  <path class="road" d="M122 430 C340 410 540 420 750 470 C950 516 1140 610 1325 742"/>

  <path class="railShadow" d="M760 142 C970 146 1104 260 1105 468 C1104 690 936 850 716 835 C494 820 360 680 360 482 C360 270 520 136 760 142Z"/>
  <path class="rail yamanote" d="M760 142 C970 146 1104 260 1105 468 C1104 690 936 850 716 835 C494 820 360 680 360 482 C360 270 520 136 760 142Z"/>
  <text class="small" x="940" y="164" fill="#138347">JR山手線</text>

  <path class="railShadow" d="M1110 487 C1220 555 1304 624 1372 720 C1435 810 1480 910 1528 1032"/>
  <path class="rail skyliner" d="M1110 487 C1220 555 1304 624 1372 720 C1435 810 1480 910 1528 1032"/>
  <text class="small" x="1272" y="708" transform="rotate(50 1272 708)" fill="#b92f2f">京成 Skyliner</text>

  <path class="railShadow" d="M370 486 C520 487 690 498 875 527 C1002 547 1100 574 1196 608"/>
  <path class="rail metro" d="M370 486 C520 487 690 498 875 527 C1002 547 1100 574 1196 608"/>
  <text class="small" x="612" y="513" fill="#cf751b">東京 Metro / 都營</text>

  <path class="railShadow" d="M1092 360 C1165 414 1220 482 1252 563 C1280 636 1302 698 1340 758"/>
  <path class="rail waterline" d="M1092 360 C1165 414 1220 482 1252 563 C1280 636 1302 698 1340 758"/>
  <text class="small" x="1214" y="558" transform="rotate(70 1214 558)" fill="#1388ad">隅田川水上巴士</text>

  <path class="railShadow" d="M858 518 C760 614 615 752 470 887 C388 964 302 1020 198 1055"/>
  <path class="rail fujiLine" d="M858 518 C760 614 615 752 470 887 C388 964 302 1020 198 1055"/>
  <text class="small" x="490" y="840" transform="rotate(-41 490 840)" fill="#5852b8">5/2 富士山巴士</text>

  <rect x="34" y="28" width="720" height="105" rx="22" fill="url(#banner)" stroke="#ffcf45" stroke-width="5" filter="url(#softShadow)"/>
  <text class="title" x="64" y="92">東京六天五夜景點地圖</text>
  <text class="subtitle" x="68" y="124">4/28-5/3｜住宿：鶯谷 HOTEL KOMACHI</text>

  <g id="nodes">
    <g transform="translate(1490 980)">
      <circle r="76" fill="#e55145" class="node"/>
      <text class="whiteText" x="0" y="-14" text-anchor="middle" font-size="29">成田</text>
      <text class="whiteText" x="0" y="25" text-anchor="middle" font-size="24">T2</text>
    </g>
    <g transform="translate(780 160)">
      <circle r="78" fill="#1c9d55" class="node"/>
      <text class="whiteText" x="0" y="-12" text-anchor="middle" font-size="29">鶯谷</text>
      <text class="whiteText" x="0" y="26" text-anchor="middle" font-size="24">飯店</text>
    </g>
    <g transform="translate(1010 268)">
      <circle r="88" fill="#e85da7" class="node"/>
      <text class="whiteText" x="0" y="-18" text-anchor="middle" font-size="30">上野</text>
      <text class="whiteText" x="0" y="19" text-anchor="middle" font-size="26">阿美橫</text>
      <text class="whiteText" x="0" y="52" text-anchor="middle" font-size="22">谷中</text>
    </g>
    <g transform="translate(372 492)">
      <circle r="94" fill="#31499b" class="node"/>
      <text class="whiteText" x="0" y="-18" text-anchor="middle" font-size="34">新宿</text>
      <text class="whiteText" x="0" y="14" text-anchor="middle" font-size="18">晚餐 / 歌舞伎町</text>
      <text class="whiteText" x="0" y="43" text-anchor="middle" font-size="17">酔月 / Alpen</text>
    </g>
    <g transform="translate(168 302)">
      <circle r="78" fill="#f0a52f" class="node"/>
      <text class="whiteText" x="0" y="-10" text-anchor="middle" font-size="30">川越</text>
      <text class="whiteText" x="0" y="28" text-anchor="middle" font-size="24">小江戶</text>
    </g>
    <g transform="translate(790 516)">
      <circle r="86" fill="#c44b37" class="node"/>
      <text class="whiteText" x="0" y="-16" text-anchor="middle" font-size="28">東京站</text>
      <text class="whiteText" x="0" y="20" text-anchor="middle" font-size="26">銀座</text>
      <text class="whiteText" x="0" y="51" text-anchor="middle" font-size="21">築地周邊</text>
    </g>
    <g transform="translate(723 350)">
      <circle r="78" fill="#5590d7" class="node"/>
      <text class="whiteText" x="0" y="-8" text-anchor="middle" font-size="28">皇居</text>
      <text class="whiteText" x="0" y="29" text-anchor="middle" font-size="23">日比谷</text>
    </g>
    <g transform="translate(485 674)">
      <circle r="86" fill="#a03bd7" class="node"/>
      <text class="whiteText" x="0" y="-18" text-anchor="middle" font-size="28">原宿</text>
      <text class="whiteText" x="0" y="17" text-anchor="middle" font-size="25">表參道</text>
      <text class="whiteText" x="0" y="49" text-anchor="middle" font-size="22">澀谷</text>
    </g>
    <g transform="translate(610 286)">
      <circle r="64" fill="#65a86e" class="node"/>
      <text class="whiteText" x="0" y="-5" text-anchor="middle" font-size="25">六義園</text>
      <text class="whiteText" x="0" y="29" text-anchor="middle" font-size="20">散步</text>
    </g>
    <g transform="translate(1190 330)">
      <circle r="84" fill="#43a9d8" class="node"/>
      <text class="whiteText" x="0" y="-17" text-anchor="middle" font-size="28">淺草</text>
      <text class="whiteText" x="0" y="19" text-anchor="middle" font-size="25">晴空塔</text>
      <text class="whiteText" x="0" y="50" text-anchor="middle" font-size="20">水上巴士</text>
    </g>
    <g transform="translate(1265 760)">
      <circle r="92" fill="#31a0b7" class="node"/>
      <text class="whiteText" x="0" y="-20" text-anchor="middle" font-size="29">台場</text>
      <text class="whiteText" x="0" y="17" text-anchor="middle" font-size="24">彩虹橋</text>
      <text class="whiteText" x="0" y="50" text-anchor="middle" font-size="22">鋼彈</text>
    </g>
    <g transform="translate(940 735)">
      <circle r="82" fill="#e76c2f" class="node"/>
      <text class="whiteText" x="0" y="-13" text-anchor="middle" font-size="28">東京塔</text>
      <text class="whiteText" x="0" y="26" text-anchor="middle" font-size="23">夜景</text>
    </g>
    <g transform="translate(225 930)">
      <circle r="104" fill="#5e7fdb" class="node"/>
      <text class="whiteText" x="0" y="-44" text-anchor="middle" font-size="29">富士山</text>
      <text class="whiteText" x="0" y="-6" text-anchor="middle" font-size="23">河口湖</text>
      <text class="whiteText" x="0" y="28" text-anchor="middle" font-size="23">忍野八海</text>
      <text class="whiteText" x="0" y="62" text-anchor="middle" font-size="22">淺間公園</text>
    </g>
  </g>

  <g id="callouts">
    <rect x="24" y="1098" width="1552" height="178" rx="20" fill="#fffdf5" fill-opacity=".92" stroke="#dccb94" stroke-width="3"/>

    <rect class="box" x="44" y="1118" width="306" height="64" stroke="#f0a52f"/>
    <text class="star" x="62" y="1157">★</text><text class="dayText" x="90" y="1157">4/29 阿美橫 / 川越</text>
    <text class="tiny" x="90" y="1178">上野、谷中、川越小江戶老街</text>

    <rect class="box" x="374" y="1118" width="306" height="64" stroke="#a03bd7"/>
    <text class="star" x="392" y="1157">★</text><text class="dayText" x="420" y="1157">4/30 皇居西東京</text>
    <text class="tiny" x="420" y="1178">皇居、原宿、澀谷、新宿彈性</text>

    <rect class="box" x="704" y="1118" width="386" height="64" stroke="#43a9d8"/>
    <text class="star" x="722" y="1157">★</text><text class="dayText" x="750" y="1157">5/1 淺草水上巴士到台場</text>
    <text class="tiny" x="750" y="1178">淺草寺、台場、彩虹橋</text>

    <rect class="box" x="1114" y="1118" width="410" height="64" stroke="#31a0b7"/>
    <text class="star" x="1132" y="1157">★</text><text class="dayText" x="1160" y="1157">台場夜景收尾</text>
    <text class="tiny" x="1160" y="1178">自由女神像、Aqua City、DiverCity</text>

    <rect class="box" x="44" y="1194" width="636" height="64" stroke="#6a66d8"/>
    <text class="star" x="62" y="1233">★</text><text class="dayText" x="90" y="1233">5/2 富士山一日遊</text>
    <text class="tiny" x="318" y="1233">07:20 出發，08:00 東京站丸之內北口上車</text>

    <rect class="box" x="704" y="1194" width="386" height="64" stroke="#c33434"/>
    <text class="star" x="722" y="1233">★</text><text class="dayText" x="750" y="1233">5/3 日暮里搭 Skyliner 回成田</text>
  </g>

  <g id="dailyLegend" transform="translate(806 28)">
    <rect x="0" y="0" width="742" height="92" rx="22" fill="#fffdf6" stroke="#2c2a24" stroke-width="4" filter="url(#softShadow)"/>
    <circle cx="36" cy="31" r="12" fill="#c33434"/><text class="daySmall" x="58" y="38">4/28 抵達：成田 → 鶯谷 → 新宿晚餐 / 歌舞伎町 / 酔月 / Alpen</text>
    <circle cx="36" cy="65" r="12" fill="#f0a52f"/><text class="daySmall" x="58" y="72">4/29 上野阿美橫 / 川越</text>
    <circle cx="368" cy="31" r="12" fill="#a03bd7"/><text class="daySmall" x="390" y="38">4/30 皇居、原宿、澀谷</text>
    <circle cx="368" cy="65" r="12" fill="#289ec8"/><text class="daySmall" x="390" y="72">5/1 淺草水上巴士到台場</text>
    <circle cx="620" cy="31" r="12" fill="#6a66d8"/><text class="daySmall" x="642" y="38">5/2 富士山</text>
    <circle cx="620" cy="65" r="12" fill="#13a653"/><text class="daySmall" x="642" y="72">5/3 回程</text>
  </g>

  <g id="dayBadges">
    <rect x="1410" y="864" width="88" height="36" rx="18" fill="#c33434"/><text class="whiteText" x="1454" y="890" text-anchor="middle" font-size="20">4/28</text>
    <rect x="916" y="138" width="88" height="36" rx="18" fill="#f0a52f"/><text class="whiteText" x="960" y="164" text-anchor="middle" font-size="20">4/29</text>
    <rect x="426" y="542" width="88" height="36" rx="18" fill="#a03bd7"/><text class="whiteText" x="470" y="568" text-anchor="middle" font-size="20">4/30</text>
    <rect x="1138" y="622" width="88" height="36" rx="18" fill="#289ec8"/><text class="whiteText" x="1182" y="648" text-anchor="middle" font-size="20">5/1</text>
    <rect x="122" y="774" width="88" height="36" rx="18" fill="#6a66d8"/><text class="whiteText" x="166" y="800" text-anchor="middle" font-size="20">5/2</text>
    <rect x="1498" y="858" width="88" height="36" rx="18" fill="#13a653"/><text class="whiteText" x="1542" y="884" text-anchor="middle" font-size="20">5/3</text>
  </g>

  <rect x="32" y="1280" width="1050" height="32" rx="12" fill="#fffdf6" opacity=".95" stroke="#d9c99c" stroke-width="2"/>
  <text class="tiny" x="52" y="1303">備註：此圖為行程示意圖，位置與路線不是精準比例地圖；實際交通請以 Google Maps、車站公告與 KKday 憑證為準。</text>
</svg>
